<svg width="13" height="13" viewBox="0 0 13 13" fill="none" xmlns="http://www.w3.org/2000/svg">
<rect x="2.17847" y="0.646447" width="14.5" height="2.16667" transform="rotate(45 2.17847 0.646447)" fill="#584D75" stroke="#FBF0E7" stroke-width="0.5"/>
<rect x="2.17847" y="1.47144" width="1" height="0.208333" rx="0.104167" transform="rotate(45 2.17847 1.47144)" fill="white"/>
<rect x="1.85449" y="1.79553" width="1" height="0.208333" rx="0.104167" transform="rotate(45 1.85449 1.79553)" fill="white"/>
<rect x="1.55981" y="2.09009" width="1" height="0.208333" rx="0.104167" transform="rotate(45 1.55981 2.09009)" fill="white"/>
<rect x="10.929" y="10.2218" width="1" height="0.208333" rx="0.104167" transform="rotate(45 10.929 10.2218)" fill="white"/>
<rect x="10.6047" y="10.5459" width="1" height="0.208333" rx="0.104167" transform="rotate(45 10.6047 10.5459)" fill="white"/>
<rect x="10.3103" y="10.8406" width="1" height="0.208333" rx="0.104167" transform="rotate(45 10.3103 10.8406)" fill="white"/>
<path d="M3.20972 2.62048L3.3509 3.32641C3.35382 3.34099 3.34096 3.35384 3.32639 3.35092L2.62046 3.20974" stroke="#ECBB5C" stroke-width="0.208333" stroke-linecap="round"/>
<path d="M3.94629 3.35706L4.08747 4.06298C4.09039 4.07756 4.07754 4.09041 4.06296 4.0875L3.35703 3.94631" stroke="#ECBB5C" stroke-width="0.208333" stroke-linecap="round"/>
</svg>
